<svg width="124" height="26" viewBox="0 0 124 26" fill="none" xmlns="http://www.w3.org/2000/svg" class="bridge-logo">
<g clip-path="url(#clip0)">
<path fill-rule="evenodd" clip-rule="evenodd" d="M86.2856 6.34548C85.7046 6.89422 85.2493 7.56 84.9506 8.29786C84.6518 9.03572 84.5166 9.82845 84.5539 10.6225V18.2288H87.5428V10.6225C87.5126 10.245 87.5621 9.86535 87.6883 9.50781C87.8144 9.15027 88.0144 8.82264 88.2754 8.5458C89.079 8.01029 90.0575 7.79539 91.0145 7.94421L92.6796 5.15879L91.0145 5.05166C90.1813 4.92314 89.3299 4.97206 88.5173 5.19518C87.7047 5.41829 86.9496 5.81046 86.3023 6.34548" fill="#662EFF"/>
<path fill-rule="evenodd" clip-rule="evenodd" d="M16.3598 6.34547C15.7788 6.8942 15.3235 7.55999 15.0248 8.29785C14.7261 9.03571 14.5908 9.82844 14.6281 10.6225V18.2288H17.617V10.6225C17.5858 10.2442 17.6357 9.86366 17.7634 9.50579C17.8911 9.14791 18.0937 8.82077 18.358 8.54578C19.158 8.00927 20.1343 7.79418 21.0887 7.9442L22.7538 5.15878L21.0887 5.05165C20.2529 4.92123 19.3985 4.9692 18.5829 5.19235C17.7673 5.41549 17.0094 5.80865 16.3598 6.34547Z" fill="#052882"/>
<path fill-rule="evenodd" clip-rule="evenodd" d="M23.8691 18.2288H26.858V5.25769H23.8691V18.2288Z" fill="#052882"/>
<path fill-rule="evenodd" clip-rule="evenodd" d="M121.045 5.44714V13.0864C121.045 13.6328 120.826 14.1569 120.436 14.5432C120.045 14.9296 119.516 15.1467 118.964 15.1467C118.412 15.1467 117.882 14.9296 117.492 14.5432C117.102 14.1569 116.882 13.6328 116.882 13.0864V5.44714H113.919V13.0864C113.95 13.37 113.919 13.6568 113.828 13.9275C113.737 14.1981 113.588 14.446 113.391 14.6542C113.194 14.8624 112.954 15.026 112.687 15.1338C112.421 15.2415 112.133 15.2909 111.845 15.2785C111.559 15.2915 111.272 15.2423 111.006 15.1343C110.741 15.0264 110.502 14.8623 110.307 14.6535C110.112 14.4448 109.965 14.1964 109.877 13.9257C109.789 13.655 109.762 13.3686 109.797 13.0864V5.44714H106.817V13.0864C106.783 13.754 106.887 14.4213 107.123 15.0474C107.36 15.6735 107.723 16.245 108.191 16.7268C108.659 17.2086 109.222 17.5904 109.845 17.8487C110.467 18.107 111.137 18.2364 111.812 18.2288C112.477 18.2379 113.137 18.1083 113.748 17.8485C114.359 17.5887 114.908 17.2044 115.359 16.7207C115.81 17.2021 116.358 17.585 116.967 17.8447C117.576 18.1044 118.234 18.2352 118.897 18.2288C119.574 18.2437 120.247 18.1194 120.874 17.8636C121.5 17.6078 122.066 17.2262 122.535 16.7429C123.005 16.2595 123.368 15.685 123.601 15.0556C123.835 14.4262 123.934 13.7557 123.892 13.0864V5.44714H121.045Z" fill="#662EFF"/>
<path fill-rule="evenodd" clip-rule="evenodd" d="M6.62769 5.02694C5.33479 5.02963 4.07063 5.40474 2.98945 6.1065V0H0.000593802V10.4412C-0.129477 12.1827 0.317732 13.9186 1.2744 15.3857C2.21512 16.6892 3.60313 17.609 5.17906 17.9734C5.58694 18.0625 6.00213 18.1149 6.41955 18.13H6.62769C7.55076 18.2157 8.48176 18.1098 9.36108 17.8189C10.2404 17.528 11.0487 17.0586 11.7342 16.4408C12.4197 15.8229 12.9674 15.0702 13.3421 14.2308C13.7169 13.3914 13.9104 12.4838 13.9104 11.5661C13.9104 10.6484 13.7169 9.74078 13.3421 8.90138C12.9674 8.06198 12.4197 7.30926 11.7342 6.6914C11.0487 6.07355 10.2404 5.60416 9.36108 5.31329C8.48176 5.02242 7.55076 4.91647 6.62769 5.00222V5.02694ZM10.3076 11.5949C10.3076 12.3153 10.0917 13.0196 9.68739 13.6186C9.28304 14.2176 8.70833 14.6844 8.03592 14.9601C7.36351 15.2358 6.62361 15.308 5.90978 15.1674C5.19596 15.0269 4.54027 14.68 4.02563 14.1705C3.51099 13.6611 3.16052 13.0121 3.01853 12.3055C2.87654 11.599 2.94941 10.8666 3.22793 10.201C3.50646 9.53544 3.97811 8.96656 4.58327 8.56632C5.18842 8.16608 5.89988 7.95246 6.62769 7.95246C7.60365 7.95246 8.53964 8.33622 9.22975 9.01931C9.91986 9.70241 10.3076 10.6289 10.3076 11.5949Z" fill="#052882"/>
<path fill-rule="evenodd" clip-rule="evenodd" d="M38.464 6.1065C37.5996 5.51797 36.6069 5.13992 35.5668 5.00316C34.5267 4.8664 33.4687 4.97479 32.479 5.3195C31.4893 5.66421 30.5958 6.23549 29.8714 6.9868C29.147 7.7381 28.6122 8.64817 28.3106 9.64286C28.0089 10.6376 27.9489 11.6887 28.1354 12.7107C28.322 13.7327 28.7498 14.6966 29.3841 15.5239C30.0184 16.3512 30.8411 17.0185 31.7853 17.4713C32.7295 17.9242 33.7685 18.1499 34.8175 18.13C38.0561 18.13 41.303 15.5506 41.3863 12.246C41.4279 9.8149 41.3863 7.4168 41.3863 4.94453C41.3863 3.29636 41.3863 1.64818 41.3863 0H38.464V6.1065ZM38.464 11.5949C38.4657 12.3173 38.2508 13.024 37.8465 13.6254C37.4423 14.2268 36.8668 14.696 36.193 14.9736C35.5193 15.2512 34.7774 15.3247 34.0614 15.1847C33.3454 15.0448 32.6875 14.6978 32.1709 14.1875C31.6542 13.6773 31.3021 13.0268 31.1591 12.3184C31.0162 11.61 31.0887 10.8756 31.3676 10.208C31.6465 9.54045 32.1192 8.9698 32.7259 8.56829C33.3326 8.16678 34.046 7.95246 34.7759 7.95246C35.7526 7.95245 36.6894 8.33595 37.3809 9.01881C38.0723 9.70167 38.4618 10.6281 38.464 11.5949Z" fill="#052882"/>
<path fill-rule="evenodd" clip-rule="evenodd" d="M55.939 11.5373C55.939 11.3395 55.939 11.1335 55.889 10.9357C55.6926 9.34254 54.9215 7.87321 53.7176 6.79813C52.5137 5.72304 50.958 5.11456 49.3369 5.08466H49.2869C48.2391 5.06982 47.2026 5.2999 46.2616 5.7562C45.3206 6.21249 44.5016 6.88213 43.8712 7.71068C43.2408 8.53924 42.8169 9.50332 42.6337 10.5246C42.4506 11.5459 42.5135 12.5955 42.8173 13.5881C43.1212 14.5808 43.6573 15.4885 44.3822 16.2375C45.1071 16.9865 46.0004 17.5556 46.9893 17.8985C47.9782 18.2415 49.0349 18.3487 50.0736 18.2113C51.1122 18.074 52.1035 17.696 52.9668 17.1081C52.9363 17.8804 52.6584 18.6231 52.1733 19.2287C51.6882 19.8343 51.021 20.2715 50.2683 20.4771C49.5156 20.6826 48.7164 20.6458 47.9862 20.372C47.256 20.0982 46.6327 19.6016 46.2065 18.9541L45.9401 18.5503L43.8004 20.6434L44.0086 20.9154C44.6264 21.7213 45.4246 22.3743 46.3405 22.8233C47.2563 23.2723 48.2649 23.505 49.2869 23.503C50.8978 23.475 52.4457 22.8785 53.6516 21.8208C54.8574 20.7632 55.6421 19.314 55.864 17.7344C55.9515 16.7534 55.9682 15.7675 55.914 14.7842C55.914 13.7129 56.0056 12.5839 55.914 11.4878L55.939 11.5373ZM52.9418 11.6032C52.9402 12.3233 52.7229 13.0267 52.3176 13.6246C51.9122 14.2225 51.337 14.6881 50.6644 14.9625C49.9919 15.2369 49.2522 15.3079 48.5389 15.1664C47.8257 15.025 47.1708 14.6774 46.657 14.1677C46.1431 13.6579 45.7935 13.0089 45.6522 12.3025C45.5109 11.5962 45.5842 10.8642 45.863 10.1991C46.1418 9.53405 46.6134 8.96566 47.2184 8.56579C47.8233 8.16591 48.5345 7.95249 49.2619 7.95249C50.2387 7.95467 51.1746 8.34026 51.8645 9.02466C52.5544 9.70907 52.9418 10.6364 52.9418 11.6032Z" fill="#052882"/>
<path fill-rule="evenodd" clip-rule="evenodd" d="M80.7903 14.4876C80.2545 14.8936 79.6162 15.146 78.9452 15.2172C78.2743 15.2884 77.5964 15.1756 76.9859 14.8911C76.3753 14.6066 75.8556 14.1614 75.4834 13.6042C75.1113 13.047 74.9011 12.3993 74.8759 11.7318C74.8506 11.0643 75.0113 10.4028 75.3403 9.81961C75.6693 9.23642 76.1539 8.75401 76.7413 8.42513C77.3286 8.09625 77.996 7.93356 78.6705 7.95485C79.3449 7.97615 80.0005 8.18061 80.5655 8.54588L81.0151 8.87551L83.1048 6.80705L82.7717 6.52686C81.7993 5.72447 80.6159 5.21305 79.3604 5.0525C78.1048 4.89196 76.829 5.08894 75.6825 5.62038C74.536 6.15182 73.5662 6.9957 72.8869 8.05313C72.2075 9.11056 71.8467 10.3377 71.8467 11.5909C71.8467 12.844 72.2075 14.0712 72.8869 15.1286C73.5662 16.1861 74.536 17.0299 75.6825 17.5614C76.829 18.0928 78.1048 18.2898 79.3604 18.1293C80.6159 17.9687 81.7993 17.4573 82.7717 16.6549L83.1214 16.3665L81.0317 14.298L80.7903 14.4876Z" fill="#662EFF"/>
<path fill-rule="evenodd" clip-rule="evenodd" d="M61.5677 5.42258C60.5555 5.77357 59.6439 6.36133 58.9104 7.13587C58.1769 7.91042 57.6433 8.84883 57.3548 9.87133C57.0663 10.8938 57.0316 11.9701 57.2535 13.0088C57.4755 14.0474 57.9475 15.0176 58.6296 15.837C59.3116 16.6563 60.1834 17.3004 61.1709 17.7147C62.1584 18.1289 63.2324 18.301 64.3015 18.2162C65.3706 18.1315 66.4032 17.7924 67.3115 17.2279C68.2198 16.6634 68.9769 15.8901 69.5185 14.9738C69.377 14.8007 67.0792 13.7376 66.896 13.6058C66.4694 14.2584 65.8374 14.7537 65.0977 15.015C64.4418 15.2498 63.7324 15.2971 63.0507 15.1513C62.369 15.0056 61.7425 14.6727 61.243 14.1909L67.5537 11.9164L70.4343 10.878L70.3844 10.5567C70.3163 10.1442 70.2104 9.73871 70.068 9.34524C69.46 7.71402 68.2257 6.38657 66.6336 5.65189C65.0416 4.91721 63.2208 4.83479 61.5677 5.42258ZM60.1524 11.4219C60.1876 10.7034 60.4365 10.0112 60.8679 9.43217C61.2992 8.85318 61.8938 8.41325 62.5769 8.16761C63.26 7.92197 64.0012 7.88158 64.7074 8.05151C65.4136 8.22144 66.0534 8.59412 66.5463 9.12274L60.1524 11.4219Z" fill="#052882"/>
<path fill-rule="evenodd" clip-rule="evenodd" d="M96.4183 5.42241C95.4061 5.7734 94.4945 6.36116 93.761 7.1357C93.0275 7.91025 92.4939 8.84866 92.2054 9.87116C91.9169 10.8937 91.8822 11.97 92.1041 13.0086C92.3261 14.0473 92.7981 15.0175 93.4802 15.8368C94.1622 16.6561 95.034 17.3003 96.0215 17.7145C97.009 18.1287 98.083 18.3008 99.1521 18.216C100.221 18.1313 101.254 17.7922 102.162 17.2277C103.07 16.6632 103.828 15.8899 104.369 14.9736C104.228 14.8005 101.93 13.7375 101.755 13.6056C101.323 14.2572 100.689 14.7519 99.9483 15.0148C99.2938 15.2499 98.5856 15.2973 97.9051 15.1515C97.2246 15.0057 96.5996 14.6727 96.1019 14.1907L102.404 11.9162L105.285 10.8779L105.227 10.5565C105.159 10.144 105.053 9.73854 104.91 9.34507C104.302 7.71581 103.069 6.38987 101.479 5.65538C99.889 4.92088 98.0704 4.83716 96.4183 5.42241ZM95.0113 11.4218C95.0443 10.7031 95.2915 10.0102 95.7219 9.43043C96.1522 8.85068 96.7464 8.41005 97.4294 8.16412C98.1124 7.9182 98.8537 7.87798 99.5598 8.04855C100.266 8.21912 100.905 8.59284 101.397 9.12257L95.0113 11.4218Z" fill="#662EFF"/>
<path fill-rule="evenodd" clip-rule="evenodd" d="M24.0031 3.65885C24.002 3.68983 24.0072 3.72073 24.0184 3.74968C24.0296 3.77863 24.0466 3.80505 24.0683 3.82736C24.0901 3.84967 24.1162 3.8674 24.145 3.87951C24.1739 3.89162 24.2049 3.89785 24.2362 3.89783H26.7338C26.7659 3.89898 26.7978 3.89359 26.8276 3.88199C26.8574 3.87039 26.8845 3.85283 26.9072 3.8304C26.9298 3.80797 26.9476 3.78117 26.9593 3.75165C26.971 3.72213 26.9764 3.69054 26.9753 3.65885V1.18658C26.9753 1.15557 26.969 1.12488 26.9568 1.09633C26.9445 1.06779 26.9266 1.04197 26.9041 1.02044C26.8816 0.998897 26.8549 0.982076 26.8256 0.970977C26.7964 0.959878 26.7652 0.954728 26.7338 0.955836L24.0031 3.65885Z" fill="#052882"/>
<path d="M58.8701 21.8053H61.168C62.0005 21.8053 62.5167 22.1597 62.5167 22.8354C62.5361 23.057 62.4694 23.2776 62.3301 23.4521C62.1909 23.6267 61.9896 23.7421 61.7674 23.7749C62.3252 23.9644 62.5999 24.2611 62.5999 24.7638C62.5999 25.5879 61.9839 25.901 61.068 25.901H58.8701V21.8053ZM61.068 23.5112C61.5509 23.5112 61.7674 23.3463 61.7674 22.9755C61.7674 22.6047 61.5343 22.4646 61.093 22.4646H59.5778V23.5112H61.068ZM61.068 25.2335C61.6009 25.2335 61.8257 25.0522 61.8257 24.6649C61.8257 24.2776 61.6092 24.1045 61.0847 24.1045H59.5778V25.25L61.068 25.2335Z" fill="black"/>
<path d="M64.9221 24.4918L63.0322 21.8053H63.948L65.2801 23.7666H65.3384L66.6871 21.8053H67.5196L65.6547 24.4836V25.901H64.8971L64.9221 24.4918Z" fill="black"/>
<path d="M69.9424 21.8054H72.0404C72.2417 21.7772 72.4469 21.7945 72.6405 21.8559C72.8341 21.9173 73.0112 22.0212 73.1585 22.1599C73.3059 22.2986 73.4196 22.4685 73.4912 22.6568C73.5629 22.8451 73.5906 23.0471 73.5723 23.2475C73.5852 23.4539 73.5517 23.6606 73.4743 23.8527C73.397 24.0447 73.2776 24.2175 73.1248 24.3585C72.972 24.4995 72.7895 24.6053 72.5905 24.6683C72.3915 24.7312 72.1809 24.7498 71.9738 24.7226H70.7V25.8928H69.9424V21.8054ZM71.9821 24.0551C72.0957 24.0737 72.2121 24.0652 72.3216 24.0303C72.4312 23.9954 72.5308 23.9352 72.6122 23.8547C72.6936 23.7741 72.7544 23.6755 72.7896 23.5671C72.8248 23.4586 72.8334 23.3434 72.8147 23.231C72.8147 22.7201 72.5399 22.4481 71.9821 22.4481H70.7V24.0139L71.9821 24.0551Z" fill="black"/>
<path d="M74.5215 21.8053H76.6861C77.7185 21.8053 78.2263 22.2998 78.2263 23.1815C78.2524 23.4752 78.1708 23.7683 77.9966 24.0074C77.8223 24.2464 77.567 24.4155 77.2772 24.4836L78.3762 25.901H77.4854L76.5279 24.6154H75.2791V25.901H74.5215V21.8053ZM76.6611 23.9562C76.768 23.979 76.8789 23.9763 76.9845 23.9484C77.0902 23.9206 77.1876 23.8683 77.2689 23.7959C77.3502 23.7235 77.4129 23.6331 77.452 23.532C77.4911 23.4309 77.5054 23.3221 77.4937 23.2145C77.4937 22.7942 77.2772 22.4893 76.6611 22.4893H75.2791V23.9562H76.6611Z" fill="black"/>
<path d="M79.3008 21.8053H80.0584V25.9257H79.3008V21.8053Z" fill="black"/>
<path d="M81.1904 25.5467V24.7803C81.7568 25.1018 82.3944 25.2801 83.047 25.2995C83.6881 25.2995 84.0211 25.0852 84.0211 24.7474C84.0211 24.4095 83.763 24.3024 82.7723 24.1293C81.9397 23.981 81.2237 23.7585 81.2237 22.9921C81.2237 22.2257 81.7982 21.6982 83.022 21.6982C83.5677 21.7004 84.1047 21.8333 84.5872 22.0856V22.852C84.1032 22.5504 83.544 22.3878 82.9721 22.3822C82.331 22.3822 82.023 22.5965 82.023 22.9097C82.023 23.2228 82.5058 23.3629 83.2468 23.503C83.9878 23.6431 84.8203 23.8656 84.8203 24.6979C84.8203 25.2253 84.4873 25.9835 83.047 25.9835C82.4013 25.9908 81.7638 25.8408 81.1904 25.5467Z" fill="black"/>
<path d="M85.7783 21.8053H86.6775L88.1428 24.3435L89.5831 21.8053H90.5072V25.9257H89.7579V22.9755L88.2094 25.6291H88.1428L86.6109 22.9755H86.5692V25.901H85.8283L85.7783 21.8053Z" fill="black"/>
<path d="M93.004 21.8053H94.2278L95.893 25.9257H95.102L94.6857 24.8874H92.5794L92.1631 25.9257H91.3389L93.004 21.8053ZM92.8125 24.2034H94.4027L93.7283 22.5058H93.4952L92.8125 24.2034Z" fill="black"/>
<path d="M96.3348 22.3246C96.3197 22.1245 96.366 21.9246 96.4675 21.751C96.569 21.5774 96.7211 21.4381 96.9038 21.3513C97.0866 21.2646 97.2915 21.2344 97.4919 21.2648C97.6922 21.2951 97.8786 21.3846 98.0268 21.5215C98.175 21.6584 98.278 21.8363 98.3224 22.032C98.3667 22.2278 98.3505 22.4322 98.2756 22.6186C98.2008 22.8051 98.0709 22.9648 97.9029 23.077C97.7349 23.1892 97.5366 23.2487 97.3339 23.2476C97.2051 23.2606 97.075 23.2461 96.9524 23.2053C96.8297 23.1644 96.7173 23.098 96.6226 23.0106C96.528 22.9232 96.4534 22.8168 96.4037 22.6984C96.3541 22.5801 96.3306 22.4526 96.3348 22.3246ZM98.0832 22.3246C98.0915 22.1764 98.0548 22.0292 97.9776 21.9019C97.9005 21.7747 97.7866 21.6732 97.6507 21.6107C97.5147 21.5482 97.3629 21.5275 97.2149 21.5513C97.0669 21.5751 96.9296 21.6423 96.8206 21.7442C96.7116 21.8461 96.636 21.978 96.6035 22.1229C96.5711 22.2677 96.5833 22.4189 96.6385 22.5569C96.6938 22.6948 96.7896 22.8132 96.9136 22.8966C97.0376 22.9801 97.184 23.0248 97.3339 23.0251C97.4288 23.031 97.5238 23.017 97.6129 22.984C97.7019 22.951 97.7829 22.8998 97.8505 22.8336C97.9181 22.7675 97.9708 22.6879 98.0052 22.6002C98.0395 22.5125 98.0548 22.4186 98.0499 22.3246H98.0832ZM96.9509 21.9043H97.4088C97.6752 21.9043 97.7918 22.0114 97.7918 22.2092C97.7928 22.2677 97.7747 22.325 97.7402 22.3725C97.7057 22.42 97.6566 22.4552 97.6003 22.4729L97.8168 22.7366H97.5753L97.3838 22.5059H97.1674V22.7366H96.9509V21.9043ZM97.4005 22.3328C97.5254 22.3328 97.5753 22.3328 97.5753 22.2092C97.5753 22.0856 97.5254 22.0774 97.4088 22.0774H97.1674V22.3328H97.4005Z" fill="black"/>
<path d="M100.497 23.8985C100.49 23.6018 100.547 23.3069 100.662 23.0331C100.778 22.7592 100.951 22.5125 101.169 22.3089C101.387 22.1053 101.646 21.9494 101.929 21.8513C102.212 21.7532 102.513 21.7151 102.812 21.7394C103.366 21.7353 103.906 21.9087 104.352 22.2339V23.0003C103.912 22.6476 103.369 22.4453 102.803 22.4234C102.602 22.4092 102.401 22.4373 102.212 22.506C102.022 22.5746 101.85 22.6822 101.706 22.8216C101.562 22.961 101.45 23.1291 101.376 23.3148C101.303 23.5004 101.27 23.6994 101.28 23.8985C101.268 24.0955 101.3 24.2927 101.372 24.4766C101.444 24.6605 101.556 24.8269 101.699 24.9644C101.841 25.102 102.013 25.2075 102.2 25.2739C102.388 25.3402 102.588 25.3658 102.787 25.3489C103.359 25.3424 103.911 25.1417 104.352 24.7803V25.5467C103.877 25.8681 103.312 26.0352 102.737 26.0247C102.443 26.0552 102.146 26.022 101.866 25.9272C101.587 25.8325 101.332 25.6785 101.118 25.4761C100.905 25.2737 100.739 25.0277 100.632 24.7552C100.525 24.4827 100.479 24.1904 100.497 23.8985Z" fill="black"/>
<path d="M105.435 21.8053H106.184V25.217H108.682V25.901H105.501L105.435 21.8053Z" fill="black"/>
<path d="M109.114 23.8985C109.094 23.4515 109.21 23.0088 109.446 22.6274C109.682 22.246 110.029 21.9434 110.44 21.7585C110.852 21.5736 111.31 21.5148 111.756 21.5898C112.201 21.6648 112.614 21.8701 112.941 22.1793C113.268 22.4885 113.493 22.8874 113.589 23.3247C113.685 23.762 113.646 24.2176 113.478 24.633C113.31 25.0484 113.02 25.4045 112.646 25.6554C112.272 25.9064 111.83 26.0407 111.378 26.0412C111.083 26.0687 110.784 26.0329 110.504 25.9364C110.223 25.8398 109.967 25.6847 109.752 25.4815C109.537 25.2783 109.369 25.0318 109.259 24.7587C109.149 24.4856 109.099 24.1922 109.114 23.8985ZM112.869 23.8985C112.869 23.5073 112.712 23.1321 112.432 22.8555C112.153 22.5788 111.774 22.4234 111.378 22.4234C110.983 22.4234 110.604 22.5788 110.325 22.8555C110.045 23.1321 109.888 23.5073 109.888 23.8985C109.888 24.2897 110.045 24.6649 110.325 24.9416C110.604 25.2182 110.983 25.3736 111.378 25.3736C111.774 25.3736 112.153 25.2182 112.432 24.9416C112.712 24.6649 112.869 24.2897 112.869 23.8985Z" fill="black"/>
<path d="M114.65 24.327V21.8053H115.408V24.2776C115.408 25.0357 115.958 25.2912 116.599 25.2912C117.24 25.2912 117.789 25.044 117.789 24.3023V21.8053H118.547V24.2776C118.547 25.5137 117.714 25.9752 116.59 25.9752C115.466 25.9752 114.65 25.5467 114.65 24.327Z" fill="black"/>
<path d="M119.804 21.8053H121.777C122.056 21.7774 122.337 21.8109 122.602 21.9035C122.866 21.996 123.106 22.1454 123.305 22.3408C123.504 22.5362 123.657 22.7728 123.753 23.0335C123.848 23.2943 123.884 23.5728 123.858 23.8491C123.884 24.1257 123.848 24.4044 123.752 24.6656C123.657 24.9267 123.504 25.1637 123.305 25.3597C123.106 25.5557 122.866 25.7058 122.602 25.7994C122.338 25.893 122.056 25.9277 121.777 25.9011H119.804V21.8053ZM121.769 25.2253C121.948 25.2425 122.129 25.2197 122.298 25.1588C122.467 25.0978 122.62 25.0001 122.746 24.8729C122.873 24.7457 122.968 24.5922 123.027 24.4236C123.085 24.255 123.105 24.0756 123.084 23.8985C123.112 23.7183 123.097 23.5343 123.042 23.3604C122.987 23.1866 122.892 23.0276 122.765 22.8955C122.638 22.7635 122.482 22.662 122.309 22.5987C122.137 22.5355 121.952 22.5121 121.769 22.5305H120.561V25.2665L121.769 25.2253Z" fill="black"/>
</g>
<defs>
<clipPath id="clip0">
<rect width="124" height="26" fill="white"/>
</clipPath>
</defs>
</svg>
