<svg width="0" height="0" class="hide">
  <symbol xmlns="http://www.w3.org/2000/svg" viewBox="0 0 18 19" id="github-logo">
    <path d="M12.487 18v-3.129a2.687 2.687 0 00-.155-1.137 2.718 2.718 0 00-.616-.973C14.292 12.478 17 11.516 17 7.101a4.36 4.36 0 00-1.23-3.031 4.043 4.043 0 00-.075-3.048s-.968-.283-3.208 1.196a11.136 11.136 0 00-5.743 0C4.504.738 3.535 1.022 3.535 1.022a4.043 4.043 0 00-.073 3.048A4.364 4.364 0 002.23 7.126c0 4.382 2.707 5.344 5.284 5.66a2.688 2.688 0 00-.771 2.086V18m0-2.425C2.64 16.787 2.64 13.553 1 13.149l5.744 2.426z" stroke-width="2" stroke-linecap="round" stroke-linejoin="round"></path>
  </symbol>

  <symbol xmlns="http://www.w3.org/2000/svg" viewBox="0 0 14 8" id="arrow">
    <path d="M1 1l6 6 6-6" stroke="#052882" stroke-width="2" stroke-linecap="round" stroke-linejoin="round"></path>
  </symbol>

  <symbol xmlns="http://www.w3.org/2000/svg" viewBox="0 0 14 13" id="star">
    <path d="M7 1l1.854 3.62L13 5.205 10 8.02l.708 3.98L7 10.12 3.292 12 4 8.021 1 5.205l4.146-.585L7 1z" stroke-width="2" stroke-linecap="round" stroke-linejoin="round"></path>
  </symbol>

  <symbol fill="none" xmlns="http://www.w3.org/2000/svg" viewBox="0 0 207 40" id="bridge-footer">
    <path fill-rule="evenodd" clip-rule="evenodd" d="M143.984 10.726c-1.89 1.708-2.889 4.211-2.889 7.237v12.862h4.987V17.963c0-1.584.413-2.767 1.228-3.518.895-.826 2.716-1.168 4.566-1.01l2.76-4.718-2.786-.172c-3.202-.332-5.922.423-7.866 2.18zm-116.675 0c-1.891 1.708-2.89 4.211-2.89 7.237v12.862h4.987V17.963c0-1.584.413-2.767 1.228-3.518.895-.826 2.716-1.168 4.566-1.01l2.76-4.718-2.785-.172c-3.203-.332-5.922.423-7.866 2.18zm12.522 20.099h4.99V8.89h-4.99v21.935zm162.15-21.61v12.904c0 2.187-1.255 3.714-3.457 3.714-2.181 0-3.421-1.527-3.421-3.714V9.215h-4.937v12.904c0 2.187-1.255 3.714-3.456 3.714-2.216 0-3.422-1.493-3.422-3.714V9.215h-4.972v12.904c0 4.96 3.448 8.7 8.394 8.7 2.412 0 4.348-.921 5.919-2.553 1.58 1.632 3.508 2.554 5.895 2.554 5.027 0 8.393-3.66 8.393-8.701V9.215h-4.936z" fill="#8293C0"></path>
    <mask id="a" maskUnits="userSpaceOnUse" x="0" y="0" width="23" height="31">
      <path d="M.001 0h22.13v30.698H0V0z" fill="#fff"></path>
    </mask>
    <g mask="url(#a)">
      <path fill-rule="evenodd" clip-rule="evenodd" d="M11.066 8.504c-2.168 0-4.282.641-6.078 1.827V0H0v17.648c0 3.065.306 5.85 2.136 8.407 1.562 2.183 3.89 3.775 6.508 4.371a10.84 10.84 0 002.42.27c6.102 0 11.065-4.977 11.065-11.096S17.167 8.504 11.066 8.504zm6.143 11.097c0 3.397-2.756 6.16-6.143 6.16-3.388 0-6.144-2.763-6.144-6.16 0-3.397 2.756-6.16 6.144-6.16 3.387 0 6.143 2.763 6.143 6.16z" fill="#8293C0"></path>
    </g>
    <path fill-rule="evenodd" clip-rule="evenodd" d="M64.187 10.33a11.043 11.043 0 00-6.078-1.826c-6.101 0-11.065 4.978-11.065 11.097s4.964 11.097 11.065 11.097c5.376 0 10.809-4.41 10.936-10 .093-4.105.04-8.223.069-12.33L69.174 0h-4.987v10.33zm.065 9.271c0 3.397-2.756 6.16-6.143 6.16s-6.143-2.763-6.143-6.16c0-3.397 2.756-6.16 6.143-6.16s6.143 2.763 6.143 6.16z" fill="#8293C0"></path>
    <mask id="b" maskUnits="userSpaceOnUse" x="71" y="8" width="23" height="32">
      <path d="M71.18 8.543h22.21v31.192H71.18V8.543z" fill="#fff"></path>
    </mask>
    <g mask="url(#b)">
      <path fill-rule="evenodd" clip-rule="evenodd" d="M93.35 19.454c-.02-.343-.05-.682-.09-1.018-.68-5.516-5.351-9.853-10.936-9.892h-.079c-6.1 0-11.064 4.977-11.064 11.096s4.963 11.097 11.064 11.097c2.192 0 4.33-.656 6.14-1.867-.123 3.29-2.83 5.929-6.14 5.929a6.126 6.126 0 01-5.134-2.787l-.446-.68-3.571 3.564.352.463c2.113 2.78 5.32 4.376 8.8 4.376 5.504 0 10.238-4.319 10.982-9.75.225-1.634.082-3.349.082-4.996 0-1.801.15-3.71.04-5.535zm-4.962.186c0 3.397-2.755 6.16-6.143 6.16-3.387 0-6.143-2.763-6.143-6.16 0-3.397 2.756-6.16 6.143-6.16 3.388 0 6.143 2.763 6.143 6.16z" fill="#8293C0"></path>
    </g>
    <path fill-rule="evenodd" clip-rule="evenodd" d="M134.813 24.487a6.066 6.066 0 01-3.735 1.275c-3.388 0-6.144-2.764-6.144-6.161s2.756-6.16 6.144-6.16c1.21 0 2.366.352 3.365 1.014l.746.546 3.488-3.498-.562-.465a11.065 11.065 0 00-7.037-2.534c-6.102 0-11.065 4.978-11.065 11.097s4.963 11.097 11.065 11.097a11.06 11.06 0 007.099-2.587l.578-.488-3.481-3.49-.461.354zM102.736 9.173c-5.733 2.093-8.7 8.473-6.613 14.223 2.087 5.75 8.449 8.725 14.182 6.633a11.092 11.092 0 005.698-4.71c-.241-.294-4.075-2.088-4.368-2.312a6.083 6.083 0 01-3.013 2.383c-2.236.816-4.757.231-6.423-1.413l10.526-3.842.002.013 4.806-1.755-.086-.542c-.112-.7-.29-1.387-.529-2.045-2.087-5.75-8.449-8.725-14.182-6.633zm-2.353 10.145a6.16 6.16 0 014.036-5.506 6.134 6.134 0 016.622 1.615l-10.658 3.89zm60.514-10.145c-5.733 2.093-8.7 8.473-6.613 14.223 2.087 5.75 8.449 8.725 14.182 6.633a11.092 11.092 0 005.698-4.71c-.241-.294-4.075-2.088-4.368-2.312a6.083 6.083 0 01-3.013 2.383c-2.236.816-4.756.231-6.422-1.413l10.526-3.842.001.013 4.807-1.755-.087-.542c-.112-.7-.29-1.387-.529-2.045-2.087-5.75-8.449-8.725-14.182-6.633zm-2.353 10.145a6.16 6.16 0 014.037-5.506 6.132 6.132 0 016.621 1.615l-10.658 3.89zM40.05 6.185s0 .4.399.4h4.19s.4 0 .4-.4V1.984s0-.4-.4-.4l-4.59 4.601z" fill="#8293C0"></path>
  </symbol>

  <symbol fill="none" xmlns="http://www.w3.org/2000/svg" viewBox="0 0 16 16" id="right-arrow">
    <path d="M3.333 8h9.333M8 3.333L12.667 8 8 12.667" stroke-width="2" stroke-linecap="round" stroke-linejoin="round"></path>
  </symbol>

  <symbol xmlns="http://www.w3.org/2000/svg" viewBox="0 0 1440 500" id="waves">
    <path d="M-126.16 60.77C-562.86 48.89-879 439.5-879 439.5h2736s-459.89-175.85-768.75-188.74c-215.37-9-331.6 66.63-549.4 53.24-284-17.46-287.96-233-665.01-243.23z" fill="#d5dbeb"></path>
    <path d="M-127.16 114.57C-563.86 102.69-880 493.31-880 493.31h2736s-459.89-175.85-768.75-188.74c-215.37-9-331.6 66.63-549.4 53.24-284-17.47-287.96-232.98-665.01-243.24z" fill="#dbe1ee"></path>
    <path d="M-123.16 165.57C-559.86 153.69-876 544.31-876 544.31h2736s-459.89-175.85-768.75-188.74c-215.37-9-331.6 66.63-549.4 53.24-284-17.47-287.96-232.98-665.01-243.24z" fill="#e4e8f2"></path>
    <path d="M-126.16 219.57C-562.86 207.69-879 598.31-879 598.31h2736s-459.89-175.85-768.75-188.74c-215.37-9-331.6 66.63-549.4 53.24-284-17.47-287.96-232.98-665.01-243.24z" fill="#f0f2f8"></path>
  </symbol>
</svg>