<svg width="115" height="36" viewBox="0 0 115 36" fill="none" xmlns="http://www.w3.org/2000/svg">
<path d="M37.2878 0.0942383L23.1865 24.9875V35.7369H14.1958V24.9875L0 0.0942383H9.84245L18.5492 15.6525L27.4453 0.0942383H37.2878Z" fill="#F3F7FF"/>
<path d="M103.914 35.7369L97.0997 25.3647H97.0051H90.2857V35.7369H81.3896V0.0942383H97.0051C105.901 0.0942383 111.863 4.90317 111.863 12.6352C111.863 17.3498 109.592 21.1215 105.806 23.2903L114.229 35.8312H103.914V35.7369ZM90.2857 17.4441H96.9104C100.317 17.4441 103.062 15.5583 103.062 12.6352C103.062 9.7121 100.412 7.92054 96.9104 7.92054H90.2857V17.4441Z" fill="#F3F7FF"/>
<path d="M40.506 8.20347V13.3896C40.506 14.804 40.4113 14.804 38.2347 14.804H37.4775V21.2159H38.2347C40.4113 21.2159 40.506 21.2159 40.506 22.6303V27.6278C40.506 32.6253 44.3862 35.8313 50.2538 35.8313H51.0109V28.5707H50.2538C49.2128 28.5707 48.1717 28.1936 48.1717 27.3449V22.9132C48.1717 20.933 47.9825 19.2357 46.279 18.1042C47.9825 16.9727 48.1717 15.1811 48.1717 13.201V8.58065C48.1717 7.73201 49.2128 7.35484 50.2538 7.35484H51.0109V0H50.2538C44.2915 0 40.506 3.20596 40.506 8.20347Z" fill="#F3F7FF"/>
<path d="M74.5761 14.7097C72.3994 14.7097 72.3047 14.7097 72.3047 13.2953V8.20347C72.3047 3.20595 68.4245 0 62.5569 0H61.7998V7.26055H62.5569C63.5979 7.26055 64.639 7.63772 64.639 8.48635V12.9181C64.639 14.8983 64.8283 16.6898 66.5318 17.8213C64.8283 18.9529 64.639 20.6501 64.639 22.6303V27.062C64.639 27.9107 63.5979 28.2878 62.5569 28.2878H61.7998V35.5484H62.5569C68.5192 35.5484 72.3047 32.3424 72.3047 27.3449V22.3474C72.3047 20.933 72.3994 20.933 74.5761 20.933H75.3332V14.5211H74.5761V14.7097Z" fill="#F3F7FF"/>
</svg>
