<svg width="173" height="38" viewBox="0 0 173 38" fill="none" xmlns="http://www.w3.org/2000/svg">
<g clip-path="url(#clip0)">
<path d="M37.2878 0.0942383L23.1865 24.9875V35.7369H14.1958V24.9875L0 0.0942383H9.84245L18.5492 15.6525L27.4453 0.0942383H37.2878Z" fill="#F3F7FF"/>
<path d="M103.914 35.7369L97.0997 25.3647H97.0051H90.2857V35.7369H81.3896V0.0942383H97.0051C105.901 0.0942383 111.863 4.90317 111.863 12.6352C111.863 17.3498 109.592 21.1215 105.806 23.2903L114.229 35.8312H103.914V35.7369ZM90.2857 17.4441H96.9104C100.317 17.4441 103.062 15.5583 103.062 12.6352C103.062 9.7121 100.412 7.92054 96.9104 7.92054H90.2857V17.4441Z" fill="#F3F7FF"/>
<path d="M40.506 8.20347V13.3896C40.506 14.804 40.4113 14.804 38.2347 14.804H37.4775V21.2159H38.2347C40.4113 21.2159 40.506 21.2159 40.506 22.6303V27.6278C40.506 32.6253 44.3862 35.8313 50.2538 35.8313H51.0109V28.5707H50.2538C49.2128 28.5707 48.1717 28.1936 48.1717 27.3449V22.9132C48.1717 20.933 47.9825 19.2357 46.279 18.1042C47.9825 16.9727 48.1717 15.1811 48.1717 13.201V8.58065C48.1717 7.73201 49.2128 7.35484 50.2538 7.35484H51.0109V0H50.2538C44.2915 0 40.506 3.20596 40.506 8.20347Z" fill="#F3F7FF"/>
<path d="M74.5761 14.7097C72.3994 14.7097 72.3047 14.7097 72.3047 13.2953V8.20347C72.3047 3.20595 68.4245 0 62.5569 0H61.7998V7.26055H62.5569C63.5979 7.26055 64.639 7.63772 64.639 8.48635V12.9181C64.639 14.8983 64.8283 16.6898 66.5318 17.8213C64.8283 18.9529 64.639 20.6501 64.639 22.6303V27.062C64.639 27.9107 63.5979 28.2878 62.5569 28.2878H61.7998V35.5484H62.5569C68.5192 35.5484 72.3047 32.3424 72.3047 27.3449V22.3474C72.3047 20.933 72.3994 20.933 74.5761 20.933H75.3332V14.5211H74.5761V14.7097Z" fill="#F3F7FF"/>
<path fill-rule="evenodd" clip-rule="evenodd" d="M118.109 27.5337H119.434V30.2682C119.529 30.1739 119.718 30.0796 119.813 30.0796C120.002 29.9853 120.286 29.891 120.57 29.891H120.854C121.043 29.891 121.138 29.891 121.327 29.891H121.516C121.99 29.9853 122.368 30.0796 122.652 30.2682C123.22 30.6454 123.598 31.1168 123.882 31.6826C123.882 31.7769 123.977 31.9655 123.977 32.0597C124.072 32.4369 124.072 32.8141 123.977 33.1913C123.882 33.3798 123.882 33.6627 123.788 33.8513C123.409 34.6999 122.747 35.1714 121.895 35.4543C121.8 35.4543 121.611 35.4543 121.516 35.5486C121.422 35.5486 121.232 35.5486 121.138 35.5486C120.57 35.5486 120.097 35.36 119.624 35.0771C119.056 34.6999 118.583 34.1342 118.393 33.4741C118.204 32.9084 118.204 32.0597 118.204 31.3054V27.5337H118.109ZM135.144 27.5337H136.469C136.469 28.4766 136.469 29.4195 136.469 30.4568V31.3997C136.469 31.5883 136.469 31.6826 136.469 31.8712V32.3426C136.469 32.8141 136.469 33.1913 136.375 33.5684C136.185 34.1342 135.807 34.6999 135.239 35.0771C135.144 35.1714 135.05 35.1714 134.955 35.2657C134.482 35.5486 133.63 35.7372 132.873 35.5486C131.832 35.2657 131.17 34.6999 130.791 33.757C130.696 33.5684 130.696 33.3798 130.602 33.1913C130.507 32.8141 130.602 32.154 130.696 31.7769C131.075 30.8339 131.548 30.2682 132.494 29.891C132.873 29.7024 133.63 29.7024 134.103 29.7967C134.387 29.891 134.766 29.9853 135.05 30.1739V27.5337H135.144ZM129.939 28.0052C130.034 28.0052 130.034 28.0052 130.034 28.0052C130.034 28.0052 130.034 28.1937 130.034 28.288V29.0424C130.034 29.1367 130.034 29.3253 129.939 29.3253C129.845 29.3253 129.75 29.3253 129.655 29.3253H128.898C128.804 29.3253 128.614 29.3253 128.709 29.231L128.993 28.9481L129.939 28.0052ZM125.87 35.6429H124.545V33.0027C124.545 32.4369 124.545 31.8712 124.639 31.3997C124.923 30.6454 125.302 30.1739 126.059 29.891C126.627 29.6081 127.479 29.7967 128.141 29.7967C128.046 29.891 127.952 29.9853 127.952 30.1739C127.857 30.3625 127.763 30.5511 127.573 30.7396C127.479 30.8339 127.479 31.0225 127.289 31.0225C127.195 31.0225 127.005 31.0225 127.005 31.0225H126.816C126.532 31.1168 126.343 31.1168 126.154 31.3054C125.775 31.6826 125.87 32.154 125.87 32.8141V35.6429ZM155.586 35.6429V33.0027C155.586 32.5312 155.586 31.8712 155.681 31.494C155.87 30.7396 156.343 30.2682 157.006 29.9853C157.195 29.891 157.385 29.891 157.574 29.7967H157.858C158.047 29.7967 158.142 29.7967 158.331 29.7967C158.426 29.7967 158.615 29.7967 158.804 29.7967C158.899 29.7967 159.088 29.7967 159.183 29.7967C159.088 29.891 159.088 29.9853 158.993 30.0796C158.899 30.2682 158.709 30.5511 158.615 30.7396C158.52 30.8339 158.52 31.0225 158.426 31.0225C158.331 31.0225 158.142 31.0225 158.142 31.0225H157.952C157.763 31.0225 157.574 31.1168 157.385 31.2111C157.006 31.494 157.006 31.9655 157.006 32.6255V35.4543C156.817 35.4543 156.722 35.4543 156.627 35.4543L155.586 35.6429ZM146.122 29.7967C146.312 29.7967 146.596 29.7967 146.785 29.7967C147.069 29.891 147.353 29.891 147.637 30.0796C148.488 30.4568 149.151 31.3054 149.34 32.4369C149.246 32.4369 149.151 32.5312 149.056 32.5312C148.867 32.6255 148.583 32.7198 148.394 32.8141C148.205 32.9084 148.11 32.9084 148.015 32.9084C147.542 33.097 147.069 33.2856 146.596 33.4741C146.312 33.5684 146.028 33.6627 145.649 33.757C145.555 33.757 145.365 33.8513 145.365 33.8513C145.46 33.9456 145.555 34.0399 145.649 34.0399C145.933 34.2285 146.406 34.4171 146.88 34.2285C147.258 34.1342 147.637 33.8513 147.826 33.5684C148.11 33.757 148.394 33.8513 148.678 34.0399C148.772 34.0399 148.962 34.1342 148.962 34.2285C148.867 34.3228 148.867 34.3228 148.867 34.4171C148.772 34.5114 148.678 34.6057 148.583 34.6999C148.583 34.6999 148.583 34.7942 148.488 34.7942C148.299 34.8885 148.205 35.0771 148.015 35.1714C147.637 35.36 147.353 35.5486 146.974 35.5486H146.69C146.596 35.5486 146.501 35.5486 146.406 35.5486C145.933 35.5486 145.649 35.4543 145.271 35.2657C144.419 34.8885 143.946 34.3228 143.662 33.4741C143.567 33.097 143.473 32.5312 143.567 32.154C143.662 31.8712 143.757 31.6826 143.851 31.3997C144.135 30.7396 144.703 30.2682 145.365 29.9853C145.555 29.891 145.744 29.891 145.933 29.7967C145.933 29.7967 146.028 29.7967 146.122 29.7967ZM152.653 29.7967C153.41 29.7967 153.978 29.9853 154.451 30.2682C154.64 30.3625 154.735 30.5511 154.924 30.6454L153.978 31.5883C153.883 31.5883 153.883 31.494 153.788 31.494C153.599 31.3997 153.504 31.3054 153.315 31.3054C152.369 31.0225 151.612 31.6826 151.328 32.2483C151.233 32.4369 151.233 32.6255 151.233 32.8141C151.233 33.0027 151.233 33.1913 151.328 33.3798C151.517 33.8513 151.895 34.2285 152.463 34.3228C152.936 34.4171 153.41 34.3228 153.694 34.1342C153.788 34.1342 153.883 34.0399 153.978 33.9456L154.924 34.8885C154.829 34.9828 154.64 35.0771 154.545 35.1714C153.978 35.5486 153.031 35.8315 152.085 35.5486C151.138 35.2657 150.476 34.6057 150.097 33.5684C150.003 33.1913 149.908 32.6255 150.003 32.154C150.003 31.9655 150.097 31.7769 150.192 31.5883C150.476 30.9282 151.044 30.3625 151.706 30.0796C151.895 29.9853 152.085 29.891 152.369 29.891C152.369 29.7967 152.558 29.7967 152.653 29.7967ZM161.549 29.7967C161.833 29.7967 162.116 29.7967 162.306 29.7967C163.252 29.9853 163.82 30.4568 164.293 31.1168C164.482 31.494 164.672 31.8712 164.672 32.3426C164.577 32.3426 164.388 32.4369 164.293 32.5312C164.104 32.6255 163.82 32.7198 163.631 32.8141C163.441 32.9084 163.347 32.9084 163.252 32.9084C162.779 33.097 162.306 33.2856 161.833 33.4741C161.549 33.5684 161.265 33.6627 161.075 33.757C160.981 33.757 160.792 33.8513 160.697 33.8513C160.792 33.9456 160.886 34.0399 160.981 34.0399C161.265 34.2285 161.738 34.4171 162.211 34.2285C162.59 34.1342 162.968 33.8513 163.157 33.5684C163.441 33.757 163.725 33.8513 164.009 34.0399C164.104 34.0399 164.293 34.1342 164.293 34.2285C164.293 34.3228 164.199 34.3228 164.199 34.4171C164.104 34.5114 164.009 34.6057 164.009 34.6999C163.915 34.7942 163.915 34.7942 163.82 34.8885C163.631 34.9828 163.536 35.1714 163.441 35.2657C163.157 35.4543 162.779 35.5486 162.306 35.6429H162.116C161.738 35.7372 161.17 35.5486 160.886 35.4543C160.697 35.36 160.602 35.36 160.413 35.2657C159.75 34.8885 159.277 34.2285 158.993 33.5684C158.899 33.2856 158.899 33.0027 158.899 32.7198C158.899 32.6255 158.899 32.5312 158.899 32.4369C158.899 32.2483 158.993 32.0597 158.993 31.8712C159.277 31.1168 159.845 30.4568 160.602 30.1739C160.792 30.0796 160.981 29.9853 161.17 29.9853L161.549 29.7967ZM139.687 29.7967C141.391 29.7967 142.432 30.7396 142.81 32.0597C142.905 32.5312 142.905 33.097 142.905 33.6627V34.6057C142.905 34.7942 142.905 34.8885 142.905 34.9828C142.905 35.1714 142.905 35.2657 142.905 35.4543C142.905 35.6429 142.81 35.9258 142.715 36.1143C142.526 36.5858 142.148 37.0573 141.674 37.4344C141.391 37.623 141.012 37.8116 140.633 37.9059C140.539 37.9059 140.35 37.9059 140.255 38.0002C140.066 38.0002 139.782 38.0002 139.592 38.0002L139.119 37.9059C138.835 37.8116 138.457 37.623 138.173 37.4344C138.078 37.4344 138.078 37.3401 137.984 37.2459C137.794 37.1516 137.7 36.963 137.605 36.8687C137.605 36.7744 137.51 36.7744 137.416 36.6801C137.51 36.5858 137.605 36.4915 137.7 36.3972L138.078 36.02C138.173 35.9258 138.267 35.8315 138.362 35.7372C138.457 35.8315 138.457 35.9258 138.551 36.02C138.741 36.2086 138.93 36.3972 139.214 36.4915C139.592 36.5858 139.971 36.5858 140.35 36.4915C140.917 36.3029 141.485 35.7372 141.485 35.0771C141.391 35.1714 141.296 35.2657 141.107 35.2657C140.539 35.5486 139.687 35.6429 138.93 35.4543C137.984 35.1714 137.321 34.5114 136.943 33.4741C136.848 33.097 136.753 32.4369 136.848 32.0597C136.943 31.8712 136.943 31.6826 137.037 31.494C137.321 30.8339 137.889 30.2682 138.551 29.9853C138.741 29.891 138.93 29.7967 139.119 29.7967H139.687ZM128.709 29.891H130.034V35.6429H128.709V29.891ZM165.429 29.9853H166.754C166.754 30.0796 166.754 30.1739 166.754 30.3625V33.5684C166.754 33.6627 166.754 33.757 166.848 33.757C166.943 33.9456 167.038 34.0399 167.132 34.1342C167.606 34.4171 168.268 34.3228 168.457 33.9456C168.647 33.6627 168.647 33.097 168.647 32.6255V29.891H169.971V32.6255C169.971 33.097 169.877 33.5684 170.066 33.8513C170.255 34.1342 170.445 34.2285 170.729 34.3228C171.013 34.4171 171.391 34.1342 171.58 33.9456C171.77 33.6627 171.77 33.1913 171.77 32.6255V29.891H173.095V32.3426C173.095 32.8141 173.189 33.3798 173.095 33.757C173 34.0399 172.905 34.4171 172.716 34.6057C172.621 34.6999 172.527 34.7942 172.432 34.8885C172.148 35.0771 171.864 35.2657 171.486 35.36C171.391 35.36 171.202 35.36 171.107 35.4543C171.013 35.4543 170.918 35.4543 170.823 35.4543H170.634C170.539 35.4543 170.445 35.4543 170.35 35.4543C170.066 35.36 169.877 35.2657 169.593 35.0771C169.498 34.9828 169.404 34.8885 169.309 34.7942L169.025 34.9828C168.836 35.1714 168.552 35.2657 168.363 35.36C167.889 35.5486 167.227 35.4543 166.848 35.2657C166.186 34.9828 165.807 34.5114 165.618 33.757C165.523 33.3798 165.523 32.8141 165.523 32.4369L165.429 29.9853ZM120.949 31.1168C120.854 31.1168 120.759 31.1168 120.759 31.1168C120.665 31.1168 120.57 31.2111 120.475 31.2111C120.097 31.3997 119.813 31.6826 119.624 32.154C119.624 32.2483 119.529 32.3426 119.529 32.4369C119.529 32.6255 119.529 32.9084 119.529 33.097C119.718 33.6627 120.002 33.9456 120.475 34.1342C120.665 34.2285 120.949 34.3228 121.232 34.2285C121.422 34.2285 121.516 34.1342 121.706 34.1342C122.084 33.9456 122.463 33.6627 122.652 33.2856C122.747 33.1913 122.747 33.0027 122.747 32.9084C122.841 32.6255 122.747 32.2483 122.652 32.0597C122.273 31.494 121.8 31.1168 120.949 31.1168ZM133.441 31.1168C133.346 31.1168 133.346 31.1168 133.252 31.1168C133.157 31.1168 133.062 31.2111 132.873 31.2111C132.494 31.3997 132.116 31.7769 131.927 32.154C131.927 32.2483 131.832 32.3426 131.832 32.4369C131.832 32.6255 131.832 32.9084 131.927 33.097C132.021 33.5684 132.4 33.9456 132.873 34.1342C133.062 34.2285 133.346 34.3228 133.63 34.2285C133.819 34.2285 133.914 34.1342 134.103 34.1342C134.482 33.9456 134.86 33.6627 135.05 33.2856C135.05 33.1913 135.144 33.097 135.144 32.9084C135.144 32.7198 135.144 32.4369 135.144 32.2483C134.955 31.6826 134.577 31.3054 134.009 31.1168C133.819 31.1168 133.63 31.0225 133.441 31.1168ZM146.217 31.1168C146.122 31.1168 146.122 31.1168 146.028 31.1168C145.933 31.1168 145.839 31.2111 145.744 31.2111C145.271 31.3997 144.703 31.9655 144.703 32.6255C144.798 32.6255 144.798 32.6255 144.892 32.5312C145.081 32.4369 145.176 32.4369 145.365 32.3426C145.839 32.154 146.406 31.9655 146.88 31.7769C147.069 31.6826 147.164 31.6826 147.353 31.5883C147.447 31.5883 147.542 31.5883 147.542 31.494C147.447 31.3997 147.353 31.3054 147.258 31.3054C147.069 31.2111 146.69 31.1168 146.217 31.1168ZM161.643 31.1168C161.549 31.1168 161.549 31.1168 161.454 31.1168C161.359 31.1168 161.17 31.2111 161.075 31.2111C160.508 31.494 160.129 31.9655 160.129 32.6255C160.224 32.6255 160.224 32.5312 160.318 32.5312C160.508 32.4369 160.602 32.4369 160.792 32.3426C161.265 32.154 161.833 31.9655 162.306 31.7769C162.495 31.6826 162.59 31.6826 162.779 31.5883C162.874 31.5883 162.874 31.5883 162.968 31.494C162.874 31.3997 162.779 31.3054 162.779 31.3054C162.495 31.2111 162.211 31.1168 161.643 31.1168ZM139.782 31.1168C139.687 31.1168 139.687 31.1168 139.592 31.1168C139.498 31.1168 139.403 31.2111 139.214 31.2111C138.835 31.3997 138.457 31.6826 138.362 32.154C138.362 32.2483 138.267 32.4369 138.267 32.5312C138.267 32.7198 138.267 33.0027 138.362 33.1913C138.551 33.757 138.835 34.0399 139.308 34.2285C139.498 34.3228 139.782 34.4171 140.066 34.3228C140.255 34.3228 140.35 34.2285 140.539 34.2285C140.917 34.0399 141.296 33.757 141.485 33.3798C141.485 33.2856 141.58 33.1913 141.58 33.097C141.58 32.8141 141.58 32.6255 141.485 32.3426C141.296 31.7769 140.917 31.3997 140.35 31.2111C140.16 31.1168 139.971 31.1168 139.782 31.1168Z" fill="white"/>
<path d="M119.056 19.6129C119.245 19.33 119.434 19.1415 119.813 18.9529C120.097 18.8586 120.475 18.7643 120.854 18.7643C121.233 18.7643 121.516 18.8586 121.8 18.9529C122.084 19.0472 122.368 19.2357 122.558 19.5186C122.747 19.7072 122.936 19.9901 123.125 20.3673C123.22 20.6501 123.315 21.0273 123.315 21.4045C123.315 21.7817 123.22 22.1588 123.125 22.4417C123.031 22.7246 122.841 23.0075 122.558 23.2903C122.368 23.4789 122.084 23.6675 121.8 23.8561C121.516 23.9504 121.138 24.0447 120.854 24.0447C120.665 24.0447 120.475 24.0447 120.286 23.9504C120.097 23.9504 119.908 23.8561 119.813 23.7618C119.624 23.6675 119.529 23.5732 119.434 23.4789C119.34 23.3846 119.245 23.2903 119.15 23.1018V23.3846C119.15 23.4789 119.15 23.6675 119.056 23.7618C118.961 23.8561 118.867 23.8561 118.677 23.8561C118.583 23.8561 118.393 23.8561 118.299 23.7618C118.204 23.6675 118.204 23.5732 118.204 23.3846V16.5955C118.204 16.5012 118.204 16.3127 118.299 16.2184C118.393 16.1241 118.488 16.0298 118.677 16.0298C118.772 16.0298 118.961 16.1241 119.056 16.2184C119.15 16.3127 119.15 16.407 119.15 16.5955V19.6129H119.056ZM119.056 21.3102C119.056 21.5931 119.056 21.7817 119.15 21.9702C119.245 22.1588 119.34 22.3474 119.529 22.536C119.718 22.6303 119.908 22.8189 120.097 22.8189C120.286 22.9132 120.475 22.9132 120.759 22.9132C120.949 22.9132 121.233 22.9132 121.422 22.8189C121.611 22.7246 121.8 22.6303 121.895 22.4417C122.084 22.2531 122.179 22.1588 122.274 21.8759C122.368 21.6874 122.368 21.4045 122.368 21.2159C122.368 20.933 122.368 20.7444 122.274 20.5558C122.179 20.3673 122.084 20.1787 121.895 20.0844C121.8 19.9901 121.611 19.8015 121.422 19.8015C121.233 19.7072 121.043 19.7072 120.759 19.7072C120.57 19.7072 120.381 19.7072 120.192 19.8015C120.002 19.8958 119.813 19.9901 119.624 20.0844C119.434 20.1787 119.34 20.3673 119.245 20.5558C119.056 20.7444 119.056 21.0273 119.056 21.3102Z" fill="white"/>
<path d="M126.343 22.4414L127.762 19.1412C127.857 19.0469 127.857 18.9526 128.046 18.8583C128.141 18.764 128.33 18.764 128.425 18.8583C128.519 18.9526 128.614 18.9526 128.709 19.1412C128.803 19.2355 128.709 19.4241 128.709 19.5184L125.964 26.0246C125.869 26.1189 125.869 26.2132 125.68 26.3074C125.586 26.4017 125.396 26.4017 125.302 26.3074C125.207 26.2132 125.112 26.1189 125.018 26.0246C125.018 25.9303 125.018 25.7417 125.018 25.6474L125.775 23.7615L124.071 19.5184C124.071 19.4241 124.071 19.2355 124.071 19.1412C124.166 19.0469 124.261 18.9526 124.355 18.8583C124.45 18.8583 124.639 18.8583 124.734 18.8583C124.828 18.9526 124.923 18.9526 125.018 19.1412L126.343 22.4414Z" fill="white"/>
</g>
<defs>
<clipPath id="clip0">
<rect width="173" height="38" fill="white"/>
</clipPath>
</defs>
</svg>
